<svg width="262" height="250" viewBox="0 0 262 250" fill="none" xmlns="http://www.w3.org/2000/svg">
<path d="M130.682 0L151.95 87.0143C153.236 92.2758 153.879 94.9066 155.25 97.0294C156.463 98.9065 158.08 100.489 159.982 101.661C162.134 102.987 164.778 103.573 170.066 104.746L261.364 125L170.066 145.254C164.778 146.427 162.134 147.013 159.982 148.339C158.08 149.511 156.463 151.093 155.25 152.971C153.879 155.093 153.236 157.724 151.95 162.986L130.682 250L109.414 162.986C108.128 157.724 107.485 155.093 106.113 152.971C104.901 151.093 103.284 149.511 101.381 148.339C99.2295 147.013 96.5856 146.427 91.2978 145.254L0 125L91.2978 104.746C96.5856 103.573 99.2295 102.987 101.381 101.661C103.284 100.489 104.901 98.9065 106.113 97.0294C107.485 94.9066 108.128 92.2758 109.414 87.0143L130.682 0Z" fill="#4AB7B6"/>
</svg>
