<svg width="592" height="512" viewBox="0 0 592 512" fill="none" xmlns="http://www.w3.org/2000/svg">
<path d="M383.782 110.251L405.402 190.93C416.194 231.206 447.69 262.643 487.986 273.361L569.084 294.932C574.533 296.381 574.533 304.113 569.084 305.562L487.986 327.133C447.69 337.851 416.194 369.288 405.402 409.564L383.782 490.243C382.326 495.678 374.613 495.678 373.157 490.243L351.537 409.564C340.744 369.288 309.249 337.851 268.953 327.133L187.855 305.562C182.406 304.113 182.406 296.381 187.855 294.932L268.953 273.361C309.249 262.643 340.744 231.206 351.537 190.93L373.157 110.251C374.613 104.816 382.326 104.816 383.782 110.251Z" fill="#F06F6F" stroke="#F06F6F"/>
<path d="M256.572 21.7566L278.025 101.813C288.818 142.089 320.313 173.526 360.61 184.243L441.084 205.648C446.532 207.097 446.532 214.829 441.084 216.278L360.61 237.683C320.313 248.4 288.818 279.837 278.025 320.113L256.572 400.169C255.116 405.605 247.404 405.605 245.947 400.169L224.494 320.113C213.701 279.837 182.206 248.4 141.91 237.683L61.4354 216.278C55.9871 214.829 55.9871 207.097 61.4354 205.648L141.91 184.243C182.206 173.526 213.701 142.089 224.494 101.813L245.947 21.7566C247.404 16.3214 255.116 16.3214 256.572 21.7566Z" stroke="#F06F6F"/>
<path d="M420.257 19.4655L422.809 44.3658C423.656 52.6355 430.205 59.1677 438.477 59.9949L463.604 62.5075C465.405 62.6875 465.405 65.3125 463.604 65.4926L438.477 68.0051C430.205 68.8323 423.656 75.3645 422.809 83.6343L420.257 108.535C420.073 110.331 417.457 110.331 417.273 108.535L414.721 83.6343C413.874 75.3645 407.325 68.8323 399.053 68.0051L373.926 65.4926C372.125 65.3125 372.125 62.6875 373.926 62.5075L399.053 59.9949C407.325 59.1677 413.874 52.6355 414.721 44.3658L417.273 19.4655C417.457 17.6694 420.073 17.6694 420.257 19.4655Z" fill="#F06F6F" stroke="#F06F6F"/>
<path d="M40.9982 125.187L41.2148 127.284C42.069 135.553 48.6224 142.08 56.8946 142.901L58.9011 143.1C60.7037 143.279 60.7037 145.906 58.9011 146.085L56.8946 146.284C48.6224 147.105 42.069 153.632 41.2148 161.901L40.9982 163.998C40.8129 165.792 38.1995 165.792 38.0141 163.998L37.7975 161.901C36.9434 153.632 30.39 147.105 22.1177 146.284L20.1112 146.085C18.3087 145.906 18.3087 143.279 20.1112 143.1L22.1177 142.901C30.39 142.08 36.9434 135.553 37.7975 127.284L38.0141 125.187C38.1995 123.393 40.8129 123.393 40.9982 125.187Z" fill="#F06F6F" stroke="#F06F6F"/>
</svg>
